<svg xmlns="http://www.w3.org/2000/svg" viewBox="0 0 56 56" fill="none">
  <path fill="#EC078D" d="M18.5 38.2h-3.1c-.25 0-.62-.38-.7-.6-.1-.27-.1-1.14-.06-1.45.05-.47.51-.86.97-.86h2.9v1.8c0 .42-.66.9-1.06.87h-10c-.38 0-1-.46-1-.87v-7.8c.2.16.43.24.68.27h10.4c.37-.02 1.03.47 1.03.87v2Zm-4.5-8.2c-.02-.16.07-.45-.14-.5-.32-.07-.23.29-.25.49-.52.1-.8.75-.4 1.19.2.23.51.18.75.28.52.19.04.83-.45.5-.11-.06-.15-.21-.25-.22-.21-.05-.3.11-.2.29.11.19.33.31.54.36.04.15-.05.45.16.47.26.03.19-.31.2-.5.66-.12.81-.98.14-1.25-.19-.07-.63-.06-.7-.3-.12-.39.49-.49.72-.31.08.07.09.19.21.21.04.01.14-.03.17-.06.16-.26-.31-.6-.55-.58-.01-.11.03-.34-.06-.43-.45-.35-.86.18-1.22.17-.02-.12-.03-.24-.03-.36 0-.1.02-.2.05-.29 1.81-.17 3.03 1.82 2.05 3.36-.81 1.28-2.71 1.35-3.61.15-.99-1.37-.12-3.33 1.56-3.48Z"/>
  <path fill="#EC078D" d="M47.2 38.8c-.5-.51-1.33.14-.95.83.5.87 1.66-.13 1.02-.83h-1.1v2.14h-3.02s-.15-.05-.17-.07c-.13-.06-.22-.2-.28-.34-.07-.21-.06-1.15.01-1.36.05-.16.32-.38.47-.38h2.99v2.14Z"/>
  <path fill="#EC078D" d="M42.5 31.2 43.8 29c1 .63 2.24.57 3.17-.15.26-.2.43-.45.64-.7.27.01.67-.09.85.16.02.03.09.16.09.18v1.09l-.04.04H39.7v-1.62Z"/>
  <path fill="#EC078D" d="M34.6 31.2h-.75c-.13 0-.38-.11-.48-.19-.41-.32-.32-1 .15-1.2.07-.03.34-.12.39-.05.05.3.16.59.29.86l.4.59Z"/>
  <path fill="#EC078D" d="M42.1 39.1c-.31.07-.22.68.22.54.25-.08.18-.63-.22-.54Z"/>
  <path fill="#EC078D" d="M36.8 25.2h-2.6c-.13 0-.35-.09-.45-.16-.42-.32-.33-1.01.15-1.22.08-.03.35-.12.4-.05.05.3.16.59.29.86l.4.59h1.01Z"/>
  <path fill="#EC078D" d="M30.2 28.4c-1.15-.38-.84 2.13.29 1.68.25-.08.18-.63-.29-.68Z"/>
</svg>
