<?xml version="1.0" encoding="UTF-8"?>
<svg id="Layer_1" xmlns="http://www.w3.org/2000/svg" version="1.1" viewBox="0 0 1080 1080">
  <!-- Generator: Adobe Illustrator 29.6.1, SVG Export Plug-In . SVG Version: 2.1.1 Build 9)  -->
  <defs>
    <style>
      .st0 {
        fill: #fff;
      }
    </style>
  </defs>
  <g>
    <path class="st0" d="M517.15,571.08H104.4v155.87c0,1.06,4.57,6.39,6.54,5.75l398.79.02c2.33,1.13,7.42-4.43,7.42-5.76v-155.87ZM517.15,517.51v-47.86c0-1.06-4.57-6.39-6.54-5.75l-398.79-.02c-2.33-1.15-7.42,4.43-7.42,5.76v47.86h412.75ZM535.59,467.45v261.69c-3.3,11.22-11.34,20.07-23.27,21.96l-402.23.03c-12.67-1.42-22.52-11.73-24.1-24.2l-.05-255.58c.44-12.93,11.19-24.72,24.15-25.9l402.23.03c11.93,1.89,19.97,10.72,23.27,21.96"/>
    <path class="st0" d="M163.9,625.74l168.6.44c7.1,4.04,6.91,12.18,0,16.25l-167.1.71c-9.2-1.97-9.99-13.72-1.5-17.39"/>
    <path class="st0" d="M263.05,663.59c5.51,5.46,2.24,14.63-5.38,15.52h-91.38c-11.34-1.35-10.45-16.33-.89-17.63,29.63,2.21,63.15-2.78,92.3-.02,2.12.2,3.76.56,5.34,2.12"/>
  </g>
  <g>
    <path class="st0" d="M654.47,659.31c8.8,8.86,31.78,8.44,43.68,6.99,10.6-1.28,19.6-9.77,20.83-20.58.76-6.86.81-24.5-.1-31.23-1.57-11.53-11.8-18.79-22.82-19.73-38.51-3.3-51.55,4.15-48.76,44.31.49,7.16,1.94,14.98,7.16,20.24M547.03,659.31c8.81,8.86,31.8,8.44,43.68,6.99,10.62-1.28,19.62-9.77,20.83-20.58.78-6.86.83-24.5-.1-31.23-1.57-11.53-11.78-18.79-22.8-19.73-38.51-3.3-51.57,4.15-48.77,44.31.51,7.16,1.94,14.98,7.16,20.24M670.61,475.39c-14.8,1.85-22.16,11.48-23.31,25.94-1.26,16.06-1.33,42.37,19.73,45.27,6.71.91,24.39.86,31.23.1,9.77-1.1,18.77-8.88,20.44-18.74,1.11-6.64,1.01-25.26.27-32.19-2.46-22.67-31.25-22.53-48.37-20.38M563.18,475.39c-14.78,1.85-22.16,11.48-23.29,25.94-1.26,16.06-1.35,42.37,19.72,45.27,6.72.91,24.4.86,31.25.1,9.76-1.1,18.77-8.88,20.43-18.74,1.11-6.64,1.01-25.26.27-32.19-2.44-22.67-31.23-22.53-48.37-20.38M910.33,439.26v88.41c-28.35-6.96-57.69-5.83-85.04,4.47.59-13.95,5.16-37.51-4.52-48.65-9.84-11.31-44.39-11.49-55.85-3.3-12.39,8.85-12.76,38.78-8.14,51.64,1.92,5.31,10.84,14.86,16.47,14.86h21.82c-49.56,35.41-73.61,92.69-59.68,153.11,2.07,8.98,5.66,17.17,8.19,25.95h-225.49c-22.18,0-49.78-32.63-49.78-54.28v-232.2h442.02Z"/>
    <path class="st0" d="M888.28,663.88c-1.38-1.7-1.31-3.74-1.48-5.8-1.72-19.82,2.63-44.37-.25-63.54-2.39-15.83-22.52-15.76-24.32,1.95-1.67,16.57-1.47,50.41-.05,67.18.22,2.56.66,5.04,1.47,7.48l41.19,41.63c8.11,4.38,18.27-2.7,17.31-11.73-.44-4.15-3.27-6.77-5.81-9.88-7.1-8.65-17.27-16.5-24.98-25.38-.76-.89-2.48-1.2-3.07-1.92M867.58,547.02c86.09-5.54,149.39,81.67,118.58,162.23-29.11,76.14-126.4,101.66-188.87,48.4-82.18-70.08-36.77-203.72,70.29-210.63"/>
    <path class="st0" d="M528.73,296.02v38.61c0,8.01,9.51,23.81,15.22,29.54,33.13,33.12,92.22,9.66,92.22-37.38v-30.77h107.42v38.61c0,8.01,9.51,23.81,15.22,29.54,33.13,33.12,92.22,9.66,92.22-37.38v-30.77c25.5.61,48.69,17.04,56.46,41.46.57,1.82,2.85,9.47,2.85,10.58v67.7h-442.04v-65.47c0-3.39,3.2-13.01,4.65-16.62,9.07-22.77,31.43-37.04,55.78-37.65"/>
    <path class="st0" d="M578.83,260.49c15.4-1.82,31.35,10.15,32.76,25.97.84,9.49,1.11,43.35-1.75,50.95-9.2,24.54-45,25.2-55.21.42-3.62-8.83-3.39-39.69-2.44-50.24,1.26-14,12.72-25.47,26.64-27.1"/>
    <path class="st0" d="M793.69,260.49c15.4-1.82,31.35,10.15,32.76,25.97.84,9.49,1.11,43.35-1.74,50.95-9.22,24.54-45.01,25.2-55.23.42-3.62-8.83-3.39-39.69-2.44-50.24,1.26-14,12.72-25.47,26.64-27.1"/>
  </g>
</svg>